<svg xmlns="http://www.w3.org/2000/svg" version="1.0" preserveAspectRatio="xMidYMid meet" viewBox="278 194.97 244.15 211.33">

<g transform="translate(0.000000,600.000000) scale(0.100000,-0.100000)" stroke="none">
<path d="M2912 4024 c-90 -45 -132 -116 -132 -223 0 -57 31 -130 72 -168 97 -90 275 -79 353 22 76 100 73 219 -7 310 -76 87 -186 109 -286 59z" fill="#636377"/>
<path d="M3545 3951 c-87 -22 -157 -86 -180 -166 -24 -83 -17 -781 9 -870 50 -172 195 -360 334 -434 l22 -12 0 438 1 438 79 -85 c44 -47 142 -153 217 -236 154 -169 184 -193 242 -201 88 -12 111 6 341 267 115 131 215 242 221 246 18 11 6 -367 -15 -441 -72 -263 -281 -467 -556 -544 -213 -59 -465 -36 -613 55 l-42 26 40 -41 c52 -54 213 -134 330 -163 78 -20 115 -23 285 -22 179 0 203 2 292 26 368 100 595 341 653 693 22 133 22 820 0 872 -56 134 -207 195 -336 136 -48 -21 -105 -82 -434 -462 l-150 -173 -29 34 c-16 18 -55 62 -87 98 -31 36 -74 85 -96 109 -257 297 -323 368 -364 388 -50 25 -120 35 -164 24z" fill="#a4a4bb"/>
<path d="M2830 3280 c0 -288 10 -371 61 -516 41 -117 78 -190 153 -299 181 -265 480 -462 786 -516 92 -16 303 -16 390 0 175 33 360 110 529 221 51 33 92 63 90 64 -2 2 -57 -14 -122 -36 -359 -120 -668 -113 -942 22 -285 140 -495 422 -550 737 -11 60 -15 159 -15 334 l0 248 -57 -27 c-82 -38 -195 -39 -271 -1 l-52 26 0 -257z" fill="#636377"/>
</g>
</svg>